<svg width="146" height="36" viewBox="0 0 146 36" fill="none" xmlns="http://www.w3.org/2000/svg">
<path d="M15.942 33.9428L17.9992 36L35.9995 17.9997L20.0564 2.05665L6.68475 15.4283L11.3134 20.0569L20.0564 11.3139L29.3136 20.5712L15.942 33.9428Z" fill="#FF4800"/>
<path d="M20.0575 2.05719L18.0003 1.14441e-05L5.34058e-05 18.0003L15.9431 33.9434L29.3148 20.5717L24.6861 15.9431L15.9431 24.6861L6.68586 15.4288L20.0575 2.05719Z" fill="black"/>
<path d="M121.288 24.4513C120.813 24.4513 120.381 24.3263 119.994 24.0763C119.606 23.8138 119.294 23.4763 119.056 23.0638C118.819 22.6513 118.7 22.2138 118.7 21.7513V13.5949C118.7 13.1074 118.819 12.6699 119.056 12.2824C119.294 11.8824 119.606 11.5637 119.994 11.3262C120.381 11.0762 120.813 10.9512 121.288 10.9512H129.481C129.956 10.9512 130.388 11.0762 130.775 11.3262C131.163 11.5637 131.475 11.8824 131.713 12.2824C131.95 12.6699 132.069 13.1074 132.069 13.5949V21.7513C132.069 22.2138 131.95 22.6513 131.713 23.0638C131.475 23.4763 131.163 23.8138 130.775 24.0763C130.388 24.3263 129.956 24.4513 129.481 24.4513H121.288ZM122.281 21.8638H129.388C129.45 21.8638 129.5 21.845 129.538 21.8075C129.588 21.7575 129.613 21.7013 129.613 21.6388V15.7512L122.281 21.8638ZM121.156 19.5762L128.488 13.4637H121.381C121.319 13.4637 121.263 13.4887 121.213 13.5387C121.175 13.5762 121.156 13.6262 121.156 13.6887V19.5762Z" fill="#FF4800"/>
<path d="M134.131 24.4513V23.795L138.125 18.92L134.131 14.2324V13.5762H136.794L139.719 17.0262L142.644 13.5762H145.306V14.2324L141.313 18.92L145.306 23.795V24.4513H142.663L139.719 20.8512L136.794 24.4513H134.131Z" fill="#FF4800"/>
<path d="M41.5876 24.4513V10.9512H52.4627C52.9377 10.9512 53.3752 11.0699 53.7752 11.3074C54.1752 11.5449 54.494 11.8637 54.7315 12.2637C54.969 12.6512 55.0877 13.0824 55.0877 13.5574V21.845C55.0877 22.32 54.969 22.7575 54.7315 23.1575C54.494 23.545 54.1752 23.8575 53.7752 24.095C53.3752 24.3325 52.9377 24.4513 52.4627 24.4513H41.5876ZM44.2689 21.9575H52.3502C52.4127 21.9575 52.469 21.9388 52.519 21.9013C52.569 21.8513 52.594 21.795 52.594 21.7325V13.6699C52.594 13.6074 52.569 13.5574 52.519 13.5199C52.469 13.4699 52.4127 13.4449 52.3502 13.4449H44.2689C44.2064 13.4449 44.1502 13.4699 44.1002 13.5199C44.0627 13.5574 44.0439 13.6074 44.0439 13.6699V21.7325C44.0439 21.795 44.0627 21.8513 44.1002 21.9013C44.1502 21.9388 44.2064 21.9575 44.2689 21.9575Z" fill="black"/>
<path d="M59.7562 24.4513C59.2812 24.4513 58.8437 24.3325 58.4437 24.095C58.0562 23.8575 57.7437 23.545 57.5062 23.1575C57.2687 22.7575 57.15 22.32 57.15 21.845V10.9512H59.625V21.7325C59.625 21.795 59.6437 21.8513 59.6812 21.9013C59.7312 21.9388 59.7875 21.9575 59.85 21.9575H67.9126C67.9751 21.9575 68.0313 21.9388 68.0813 21.9013C68.1313 21.8513 68.1563 21.795 68.1563 21.7325V10.9512H70.6501V21.845C70.6501 22.32 70.5313 22.7575 70.2938 23.1575C70.0563 23.545 69.7376 23.8575 69.3376 24.095C68.9501 24.3325 68.5188 24.4513 68.0438 24.4513H59.7562Z" fill="black"/>
<path d="M77.5525 24.4513V13.4449H72.0399V10.9512H85.54V13.4449H80.0462V24.4513H77.5525Z" fill="black"/>
<path d="M89.5486 24.4513C89.0736 24.4513 88.6361 24.3325 88.2361 24.095C87.8486 23.8575 87.5361 23.545 87.2986 23.1575C87.0611 22.7575 86.9423 22.32 86.9423 21.845V13.5574C86.9423 13.0824 87.0611 12.6512 87.2986 12.2637C87.5361 11.8637 87.8486 11.5449 88.2361 11.3074C88.6361 11.0699 89.0736 10.9512 89.5486 10.9512H100.405V13.4449H90.0736C89.8736 13.4449 89.7111 13.5012 89.5861 13.6137C89.4736 13.7262 89.4174 13.8887 89.4174 14.1012V21.3013C89.4174 21.5013 89.4736 21.6638 89.5861 21.7888C89.7111 21.9013 89.8736 21.9575 90.0736 21.9575H100.405V24.4513H89.5486Z" fill="black"/>
<path d="M102.379 24.4513V10.9512H104.854V16.445H113.704V10.9512H116.179V24.4513H113.704V18.9575H104.854V24.4513H102.379Z" fill="black"/>
</svg>
